<svg width="25" height="25" viewBox="0 0 25 25" fill="none" xmlns="http://www.w3.org/2000/svg">
<path d="M18.75 3.38542H6.25002C4.66981 3.38542 3.38544 4.6698 3.38544 6.25V18.75C3.38544 20.3302 4.66981 21.6146 6.25002 21.6146H18.75C20.3302 21.6146 21.6146 20.3302 21.6146 18.75V6.25C21.6146 4.6698 20.3302 3.38542 18.75 3.38542ZM20.0521 18.75C20.0521 19.4677 19.4677 20.0521 18.75 20.0521H6.25002C5.53231 20.0521 4.94794 19.4677 4.94794 18.75V6.25C4.94794 5.5323 5.53231 4.94792 6.25002 4.94792H18.75C19.4677 4.94792 20.0521 5.5323 20.0521 6.25V18.75ZM9.1146 12.5V16.6667C9.1146 17.0979 8.7646 17.4479 8.33335 17.4479C7.9021 17.4479 7.5521 17.0979 7.5521 16.6667V12.5C7.5521 12.0688 7.9021 11.7188 8.33335 11.7188C8.7646 11.7188 9.1146 12.0688 9.1146 12.5ZM13.2813 8.33334V16.6667C13.2813 17.0979 12.9313 17.4479 12.5 17.4479C12.0688 17.4479 11.7188 17.0979 11.7188 16.6667V8.33334C11.7188 7.90209 12.0688 7.55209 12.5 7.55209C12.9313 7.55209 13.2813 7.90209 13.2813 8.33334ZM17.4479 10.4167V16.6667C17.4479 17.0979 17.0979 17.4479 16.6667 17.4479C16.2354 17.4479 15.8854 17.0979 15.8854 16.6667V10.4167C15.8854 9.98542 16.2354 9.63542 16.6667 9.63542C17.0979 9.63542 17.4479 9.98542 17.4479 10.4167Z" fill="black"/>
</svg>
