<svg width="25" height="25" viewBox="0 0 25 25" fill="none" xmlns="http://www.w3.org/2000/svg">
<g clip-path="url(#clip0_36_44)">
<path d="M12.5 4.6875C7.29169 4.6875 2.84377 7.92708 1.04169 12.5C2.84377 17.0729 7.29169 20.3125 12.5 20.3125C17.7136 20.3125 22.1563 17.0729 23.9584 12.5C22.1563 7.92708 17.7136 4.6875 12.5 4.6875ZM12.5 17.7083C9.62502 17.7083 7.29169 15.375 7.29169 12.5C7.29169 9.625 9.62502 7.29167 12.5 7.29167C15.375 7.29167 17.7084 9.625 17.7084 12.5C17.7084 15.375 15.375 17.7083 12.5 17.7083ZM12.5 9.375C10.7761 9.375 9.37502 10.776 9.37502 12.5C9.37502 14.224 10.7761 15.625 12.5 15.625C14.224 15.625 15.625 14.224 15.625 12.5C15.625 10.776 14.224 9.375 12.5 9.375Z" fill="black"/>
</g>
<defs>
<clipPath id="clip0_36_44">
<rect width="25" height="25" fill="white"/>
</clipPath>
</defs>
</svg>
