<svg width="25" height="25" viewBox="0 0 25 25" fill="none" xmlns="http://www.w3.org/2000/svg">
<g clip-path="url(#clip0_37_5)">
<path d="M12.5 25C5.60748 25 0 19.3897 0 12.4939C0 5.60475 5.60748 0 12.5 0C19.3925 0 25 5.60475 25 12.4939C25 19.3897 19.3925 25 12.5 25ZM12.5 2.77797C7.13945 2.77797 2.77767 7.13604 2.77767 12.4939C2.77767 17.8579 7.13945 22.222 12.5 22.222C17.8611 22.222 22.2224 17.8579 22.2224 12.4939C22.2224 7.13604 17.8611 2.77797 12.5 2.77797Z" fill="#DAB466"/>
<path d="M16.0018 16.9358C15.3277 17.5949 14.3921 17.9988 13.1881 18.152V19.6399H11.8542V18.188C10.7872 18.0792 9.92438 17.7375 9.2563 17.161C8.59382 16.5841 8.16766 15.7712 7.98401 14.7243L10.3921 14.4962C10.4892 14.9251 10.6768 15.2957 10.9475 15.6014C11.2183 15.9116 11.5224 16.1363 11.8542 16.2678V12.9306C10.644 12.6271 9.76236 12.1794 9.19528 11.5779C8.63043 10.9671 8.35189 10.2375 8.35189 9.37143C8.35189 8.49817 8.6737 7.76136 9.30514 7.16995C9.94436 6.57629 10.7922 6.23507 11.8542 6.14408V5.35901H13.1881V6.14408C14.1696 6.24448 14.9453 6.53522 15.5252 7.01012C16.1089 7.4895 16.4729 8.12921 16.6327 8.9226L14.3012 9.18611C14.1602 8.56309 13.7923 8.13586 13.1881 7.91173V11.0315C14.6674 11.3776 15.675 11.8321 16.2093 12.3769C16.7475 12.9339 17.0166 13.6363 17.0166 14.4963C17.0166 15.4656 16.6759 16.2728 16.0018 16.9358V16.9358ZM10.6563 9.27601C10.6563 9.5623 10.7639 9.82361 10.9575 10.0633C11.1506 10.303 11.4514 10.5044 11.8542 10.6508V7.88896C11.4874 7.99329 11.2017 8.17525 10.9842 8.42881C10.7694 8.68458 10.6563 8.97138 10.6563 9.27601ZM13.1881 13.2724V16.386C13.6536 16.3099 14.0248 16.1258 14.3178 15.8284C14.6052 15.5316 14.7517 15.1853 14.7517 14.7892C14.7517 14.4297 14.6318 14.124 14.3894 13.866C14.1436 13.6102 13.7429 13.4072 13.1881 13.2724Z" fill="white"/>
</g>
<defs>
<clipPath id="clip0_37_5">
<rect width="25" height="25" fill="white"/>
</clipPath>
</defs>
</svg>
