<svg width="25" height="25" viewBox="0 0 25 25" fill="none" xmlns="http://www.w3.org/2000/svg">
<path d="M12.5 3.125C12.5 3.125 6.05623 8.6875 2.45519 11.7C2.3406 11.7998 2.24828 11.9227 2.18422 12.0605C2.12015 12.1983 2.08578 12.348 2.08331 12.5C2.08331 12.7763 2.19306 13.0412 2.38841 13.2366C2.58376 13.4319 2.84871 13.5417 3.12498 13.5417H5.20831V20.8333C5.20831 21.1096 5.31806 21.3746 5.51341 21.5699C5.70876 21.7653 5.97371 21.875 6.24998 21.875H9.37498C9.65125 21.875 9.9162 21.7653 10.1115 21.5699C10.3069 21.3746 10.4166 21.1096 10.4166 20.8333V16.6667H14.5833V20.8333C14.5833 21.1096 14.6931 21.3746 14.8884 21.5699C15.0838 21.7653 15.3487 21.875 15.625 21.875H18.75C19.0262 21.875 19.2912 21.7653 19.4866 21.5699C19.6819 21.3746 19.7916 21.1096 19.7916 20.8333V13.5417H21.875C22.1512 13.5417 22.4162 13.4319 22.6116 13.2366C22.8069 13.0412 22.9166 12.7763 22.9166 12.5C22.9152 12.3451 22.8785 12.1926 22.8094 12.054C22.7403 11.9154 22.6405 11.7943 22.5177 11.7C18.9416 8.6875 12.5 3.125 12.5 3.125Z" fill="black"/>
</svg>
