<svg width="38" height="39" viewBox="0 0 38 39" fill="none" xmlns="http://www.w3.org/2000/svg">
<g filter="url(#filter0_d_42_4)">
<path d="M19 17C14.589 17 11 13.411 11 9C11 4.589 14.589 1 19 1C23.411 1 27 4.589 27 9C27 13.411 23.411 17 19 17ZM19 3C15.691 3 13 5.691 13 9C13 12.309 15.691 15 19 15C22.309 15 25 12.309 25 9C25 5.691 22.309 3 19 3Z" fill="black"/>
<path d="M19.4 13.2H18.6C18.0395 13.1978 17.4946 13.0154 17.0456 12.6797C16.5967 12.3441 16.2677 11.873 16.107 11.336C16.0665 11.2091 16.0517 11.0754 16.0636 10.9427C16.0755 10.81 16.1137 10.681 16.1761 10.5633C16.2386 10.4456 16.3239 10.3415 16.4271 10.2573C16.5302 10.173 16.6492 10.1102 16.777 10.0725C16.9048 10.0349 17.0389 10.0232 17.1713 10.038C17.3036 10.0529 17.4317 10.0941 17.548 10.1592C17.6643 10.2242 17.7663 10.3119 17.8482 10.4169C17.9302 10.522 17.9903 10.6424 18.025 10.771C18.1 11.024 18.337 11.201 18.6 11.201H19.4C19.5593 11.201 19.712 11.1377 19.8246 11.0251C19.9372 10.9125 20.0005 10.7598 20.0005 10.6005C20.0005 10.4412 19.9372 10.2885 19.8246 10.1759C19.712 10.0633 19.5593 10 19.4 10H18.6C17.166 10 16 8.833 16 7.4C16 5.967 17.166 4.8 18.6 4.8H19.4C20.521 4.8 21.511 5.514 21.866 6.578C21.9096 6.70306 21.9279 6.83554 21.9199 6.96773C21.9118 7.09992 21.8776 7.2292 21.8192 7.34806C21.7608 7.46693 21.6794 7.57301 21.5796 7.66014C21.4799 7.74728 21.3638 7.81373 21.2382 7.85565C21.1126 7.89757 20.9799 7.91412 20.8478 7.90434C20.7157 7.89455 20.5869 7.85863 20.4688 7.79866C20.3508 7.73868 20.2458 7.65585 20.16 7.55497C20.0742 7.45409 20.0093 7.33717 19.969 7.211C19.9296 7.09127 19.8533 6.98705 19.7511 6.91324C19.649 6.83943 19.5261 6.79979 19.4 6.8H18.6C18.4409 6.8 18.2883 6.86322 18.1757 6.97574C18.0632 7.08826 18 7.24087 18 7.4C18 7.55913 18.0632 7.71175 18.1757 7.82427C18.2883 7.93679 18.4409 8 18.6 8H19.4C20.834 8 22 9.167 22 10.6C22 12.033 20.834 13.2 19.4 13.2Z" fill="black"/>
<path d="M19 6C18.729 6 18.479 5.89 18.29 5.71C18.25 5.66 18.2 5.61 18.17 5.55C18.1304 5.49899 18.0999 5.44146 18.08 5.38C18.0512 5.32319 18.0307 5.26258 18.019 5.2C18.01 5.13 18 5.07 18 5C18 4.74 18.109 4.48 18.29 4.29C18.66 3.92 19.33 3.92 19.71 4.29C19.89 4.48 20 4.74 20 5C20 5.07 19.99 5.13 19.979 5.2C19.9686 5.26278 19.9483 5.32352 19.919 5.38C19.8987 5.44129 19.8683 5.49876 19.829 5.55C19.789 5.61 19.749 5.66 19.709 5.71C19.52 5.89 19.26 6 19 6ZM19 14C18.729 14 18.479 13.89 18.29 13.71C18.25 13.66 18.2 13.61 18.17 13.55C18.1304 13.499 18.0999 13.4415 18.08 13.38C18.0512 13.3232 18.0307 13.2626 18.019 13.2C18.01 13.13 18 13.07 18 13C18 12.74 18.109 12.48 18.29 12.29C18.66 11.92 19.33 11.92 19.71 12.29C19.89 12.48 20 12.74 20 13C20 13.07 19.99 13.13 19.979 13.2C19.9686 13.2628 19.9483 13.3235 19.919 13.38C19.8987 13.4413 19.8683 13.4988 19.829 13.55C19.789 13.61 19.749 13.66 19.709 13.71C19.52 13.89 19.26 14 19 14ZM21 31H5C4.73478 31 4.48043 30.8946 4.29289 30.7071C4.10536 30.5196 4 30.2652 4 30V21C4 20.735 4.105 20.48 4.293 20.293C4.527 20.058 6.653 18 9 18C10.944 18 13.452 19.469 14.295 20H19C19.4377 20.0007 19.87 20.097 20.2666 20.2822C20.6632 20.4674 21.0145 20.737 21.296 21.0722C21.5774 21.4074 21.7823 21.8001 21.8961 22.2227C22.0099 22.6454 22.03 23.0878 21.955 23.519L29.846 20.231C30.3018 20.0406 30.7976 19.9659 31.2893 20.0135C31.781 20.0611 32.2532 20.2296 32.664 20.504C33.0754 20.7775 33.4127 21.1485 33.6458 21.584C33.8789 22.0196 34.0006 22.506 34 23C34.0001 23.1748 33.9543 23.3466 33.8673 23.4982C33.7802 23.6498 33.655 23.7759 33.504 23.864L21.504 30.864C21.3509 30.953 21.1771 30.9999 21 31ZM6 29H20.729L31.869 22.502C31.7913 22.3681 31.6839 22.2538 31.555 22.168C31.4186 22.0754 31.2612 22.0185 31.0971 22.0026C30.933 21.9867 30.7676 22.0123 30.616 22.077L21.386 25.923C21.2637 25.9738 21.1325 26 21 26H13C12.7348 26 12.4804 25.8946 12.2929 25.7071C12.1054 25.5196 12 25.2652 12 25C12 24.7348 12.1054 24.4804 12.2929 24.2929C12.4804 24.1054 12.7348 24 13 24H19C19.2575 23.9885 19.5006 23.8781 19.6787 23.6918C19.8569 23.5055 19.9563 23.2577 19.9563 23C19.9563 22.7423 19.8569 22.4945 19.6787 22.3082C19.5006 22.1219 19.2575 22.0115 19 22H14C13.803 22 13.609 21.941 13.445 21.833C12.68 21.323 10.387 20 9 20C7.91 20 6.653 20.88 6 21.439V29Z" fill="black"/>
</g>
<defs>
<filter id="filter0_d_42_4" x="-1" y="0" width="40" height="40" filterUnits="userSpaceOnUse" color-interpolation-filters="sRGB">
<feFlood flood-opacity="0" result="BackgroundImageFix"/>
<feColorMatrix in="SourceAlpha" type="matrix" values="0 0 0 0 0 0 0 0 0 0 0 0 0 0 0 0 0 0 127 0" result="hardAlpha"/>
<feOffset dy="4"/>
<feGaussianBlur stdDeviation="2"/>
<feComposite in2="hardAlpha" operator="out"/>
<feColorMatrix type="matrix" values="0 0 0 0 0 0 0 0 0 0 0 0 0 0 0 0 0 0 0.25 0"/>
<feBlend mode="normal" in2="BackgroundImageFix" result="effect1_dropShadow_42_4"/>
<feBlend mode="normal" in="SourceGraphic" in2="effect1_dropShadow_42_4" result="shape"/>
</filter>
</defs>
</svg>
