<svg width="683" height="683" viewBox="0 0 683 683" fill="none" xmlns="http://www.w3.org/2000/svg">
<g clip-path="url(#clip0_40_2)">
<path d="M542.016 401.609V321.547H361.333V281.484H642.635V54.6667H40.0313V281.484H321.333V321.547H140.651V401.609H0V628.427H321.302V401.609H180.651V361.547H502.016V401.609H361.365V628.427H682.667V401.609H542.016ZM80.0313 94.6667H602.635V241.484H80.0313V94.6667ZM281.302 588.427H40V441.609H281.302V588.427ZM642.667 588.427H401.365V441.609H642.667V588.427Z" fill="black"/>
<path d="M200.146 148.073H301.302V188.073H200.146V148.073ZM120.078 148.073H160.115V188.073H120.078V148.073ZM381.365 148.073H482.521V188.073H381.365V148.073ZM522.552 148.073H562.589V188.073H522.552V148.073ZM80.0469 495.021H241.255V535.021H80.0469V495.021ZM441.411 495.021H602.62V535.021H441.411V495.021Z" fill="black"/>
</g>
<defs>
<clipPath id="clip0_40_2">
<rect width="682.667" height="682.667" fill="white"/>
</clipPath>
</defs>
</svg>
