<svg width="52" height="52" viewBox="0 0 52 52" fill="none" xmlns="http://www.w3.org/2000/svg">
<path d="M50.9 22.1C50.6 22.8 50 23.2 49.3 23.2H47V41.9C47 44.3 45 46.3 42.6 46.3C40.2 46.3 38.2 44.3 38.2 41.9V23.2H35.9C35.2 23.2 34.5 22.8 34.2 22.1C33.9 21.4 34.1 20.7 34.6 20.1L41.9 12.8C42.3 12.4 42.9 12.4 43.3 12.8L50.6 20.1C51 20.7 51.1 21.4 50.9 22.1ZM31.4 34.3V41.8C31.4 44.1 29.5 46 27.2 46H5.2C2.9 46 1 44.1 1 41.8V34.2C1 31 3.1 28.2 6.1 27.2L8.7 26.4C9.6 26.1 10.7 26.4 11.4 27.1L16.2 32.2L20.7 27.1C21.4 26.4 22.5 26.1 23.4 26.3L26.2 27.2C29.3 28.2 31.4 31 31.4 34.3ZM7.9 14.1C7.9 9.5 11.6 5.8 16.2 5.8C20.8 5.8 24.5 9.5 24.5 14.1C24.5 18.7 20.8 22.4 16.2 22.4C11.6 22.4 7.9 18.7 7.9 14.1Z" fill="black"/>
</svg>
