<svg width="1792" height="1792" viewBox="0 0 1792 1792" fill="none" xmlns="http://www.w3.org/2000/svg">
<path d="M1472 0C1489.33 0 1504.33 6.33333 1517 19C1529.67 31.6667 1536 46.6667 1536 64V1728C1536 1745.33 1529.67 1760.33 1517 1773C1504.33 1785.67 1489.33 1792 1472 1792H192C174.667 1792 159.667 1785.67 147 1773C134.333 1760.33 128 1745.33 128 1728V64C128 46.6667 134.333 31.6667 147 19C159.667 6.33333 174.667 0 192 0H1472ZM640 288V352C640 361.333 643 369 649 375C655 381 662.667 384 672 384H736C745.333 384 753 381 759 375C765 369 768 361.333 768 352V288C768 278.667 765 271 759 265C753 259 745.333 256 736 256H672C662.667 256 655 259 649 265C643 271 640 278.667 640 288ZM640 544V608C640 617.333 643 625 649 631C655 637 662.667 640 672 640H736C745.333 640 753 637 759 631C765 625 768 617.333 768 608V544C768 534.667 765 527 759 521C753 515 745.333 512 736 512H672C662.667 512 655 515 649 521C643 527 640 534.667 640 544ZM640 800V864C640 873.333 643 881 649 887C655 893 662.667 896 672 896H736C745.333 896 753 893 759 887C765 881 768 873.333 768 864V800C768 790.667 765 783 759 777C753 771 745.333 768 736 768H672C662.667 768 655 771 649 777C643 783 640 790.667 640 800ZM640 1056V1120C640 1129.33 643 1137 649 1143C655 1149 662.667 1152 672 1152H736C745.333 1152 753 1149 759 1143C765 1137 768 1129.33 768 1120V1056C768 1046.67 765 1039 759 1033C753 1027 745.333 1024 736 1024H672C662.667 1024 655 1027 649 1033C643 1039 640 1046.67 640 1056ZM512 1376V1312C512 1302.67 509 1295 503 1289C497 1283 489.333 1280 480 1280H416C406.667 1280 399 1283 393 1289C387 1295 384 1302.67 384 1312V1376C384 1385.33 387 1393 393 1399C399 1405 406.667 1408 416 1408H480C489.333 1408 497 1405 503 1399C509 1393 512 1385.33 512 1376ZM512 1120V1056C512 1046.67 509 1039 503 1033C497 1027 489.333 1024 480 1024H416C406.667 1024 399 1027 393 1033C387 1039 384 1046.67 384 1056V1120C384 1129.33 387 1137 393 1143C399 1149 406.667 1152 416 1152H480C489.333 1152 497 1149 503 1143C509 1137 512 1129.33 512 1120ZM512 864V800C512 790.667 509 783 503 777C497 771 489.333 768 480 768H416C406.667 768 399 771 393 777C387 783 384 790.667 384 800V864C384 873.333 387 881 393 887C399 893 406.667 896 416 896H480C489.333 896 497 893 503 887C509 881 512 873.333 512 864ZM512 608V544C512 534.667 509 527 503 521C497 515 489.333 512 480 512H416C406.667 512 399 515 393 521C387 527 384 534.667 384 544V608C384 617.333 387 625 393 631C399 637 406.667 640 416 640H480C489.333 640 497 637 503 631C509 625 512 617.333 512 608ZM512 352V288C512 278.667 509 271 503 265C497 259 489.333 256 480 256H416C406.667 256 399 259 393 265C387 271 384 278.667 384 288V352C384 361.333 387 369 393 375C399 381 406.667 384 416 384H480C489.333 384 497 381 503 375C509 369 512 361.333 512 352ZM1024 1632V1440C1024 1430.67 1021 1423 1015 1417C1009 1411 1001.33 1408 992 1408H672C662.667 1408 655 1411 649 1417C643 1423 640 1430.67 640 1440V1632C640 1641.33 643 1649 649 1655C655 1661 662.667 1664 672 1664H992C1001.33 1664 1009 1661 1015 1655C1021 1649 1024 1641.33 1024 1632ZM1024 1120V1056C1024 1046.67 1021 1039 1015 1033C1009 1027 1001.33 1024 992 1024H928C918.667 1024 911 1027 905 1033C899 1039 896 1046.67 896 1056V1120C896 1129.33 899 1137 905 1143C911 1149 918.667 1152 928 1152H992C1001.33 1152 1009 1149 1015 1143C1021 1137 1024 1129.33 1024 1120ZM1024 864V800C1024 790.667 1021 783 1015 777C1009 771 1001.33 768 992 768H928C918.667 768 911 771 905 777C899 783 896 790.667 896 800V864C896 873.333 899 881 905 887C911 893 918.667 896 928 896H992C1001.33 896 1009 893 1015 887C1021 881 1024 873.333 1024 864ZM1024 608V544C1024 534.667 1021 527 1015 521C1009 515 1001.33 512 992 512H928C918.667 512 911 515 905 521C899 527 896 534.667 896 544V608C896 617.333 899 625 905 631C911 637 918.667 640 928 640H992C1001.33 640 1009 637 1015 631C1021 625 1024 617.333 1024 608ZM1024 352V288C1024 278.667 1021 271 1015 265C1009 259 1001.33 256 992 256H928C918.667 256 911 259 905 265C899 271 896 278.667 896 288V352C896 361.333 899 369 905 375C911 381 918.667 384 928 384H992C1001.33 384 1009 381 1015 375C1021 369 1024 361.333 1024 352ZM1280 1376V1312C1280 1302.67 1277 1295 1271 1289C1265 1283 1257.33 1280 1248 1280H1184C1174.67 1280 1167 1283 1161 1289C1155 1295 1152 1302.67 1152 1312V1376C1152 1385.33 1155 1393 1161 1399C1167 1405 1174.67 1408 1184 1408H1248C1257.33 1408 1265 1405 1271 1399C1277 1393 1280 1385.33 1280 1376ZM1280 1120V1056C1280 1046.67 1277 1039 1271 1033C1265 1027 1257.33 1024 1248 1024H1184C1174.67 1024 1167 1027 1161 1033C1155 1039 1152 1046.67 1152 1056V1120C1152 1129.33 1155 1137 1161 1143C1167 1149 1174.67 1152 1184 1152H1248C1257.33 1152 1265 1149 1271 1143C1277 1137 1280 1129.33 1280 1120ZM1280 864V800C1280 790.667 1277 783 1271 777C1265 771 1257.33 768 1248 768H1184C1174.67 768 1167 771 1161 777C1155 783 1152 790.667 1152 800V864C1152 873.333 1155 881 1161 887C1167 893 1174.67 896 1184 896H1248C1257.33 896 1265 893 1271 887C1277 881 1280 873.333 1280 864ZM1280 608V544C1280 534.667 1277 527 1271 521C1265 515 1257.33 512 1248 512H1184C1174.67 512 1167 515 1161 521C1155 527 1152 534.667 1152 544V608C1152 617.333 1155 625 1161 631C1167 637 1174.67 640 1184 640H1248C1257.33 640 1265 637 1271 631C1277 625 1280 617.333 1280 608ZM1280 352V288C1280 278.667 1277 271 1271 265C1265 259 1257.33 256 1248 256H1184C1174.67 256 1167 259 1161 265C1155 271 1152 278.667 1152 288V352C1152 361.333 1155 369 1161 375C1167 381 1174.67 384 1184 384H1248C1257.33 384 1265 381 1271 375C1277 369 1280 361.333 1280 352Z" fill="black"/>
</svg>
